<svg id="visual" viewBox="0 0 900 600" width="900" height="600" xmlns="http://www.w3.org/2000/svg" xmlns:xlink="http://www.w3.org/1999/xlink" version="1.1"><rect x="0" y="0" width="900" height="600" fill="#f2b300"></rect><path d="M0 335L12.5 317.5C25 300 50 265 75 257.3C100 249.7 125 269.3 150 284.7C175 300 200 311 225 299.8C250 288.7 275 255.3 300 257.5C325 259.7 350 297.3 375 324.7C400 352 425 369 450 350C475 331 500 276 525 271C550 266 575 311 600 332.2C625 353.3 650 350.7 675 352C700 353.3 725 358.7 750 362.5C775 366.3 800 368.7 825 359.5C850 350.3 875 329.7 887.5 319.3L900 309L900 601L887.5 601C875 601 850 601 825 601C800 601 775 601 750 601C725 601 700 601 675 601C650 601 625 601 600 601C575 601 550 601 525 601C500 601 475 601 450 601C425 601 400 601 375 601C350 601 325 601 300 601C275 601 250 601 225 601C200 601 175 601 150 601C125 601 100 601 75 601C50 601 25 601 12.5 601L0 601Z" fill="#9327ef"></path><path d="M0 429L12.5 431C25 433 50 437 75 427.5C100 418 125 395 150 397.5C175 400 200 428 225 436.7C250 445.3 275 434.7 300 432.8C325 431 350 438 375 442C400 446 425 447 450 429.5C475 412 500 376 525 371.8C550 367.7 575 395.3 600 414.3C625 433.3 650 443.7 675 430C700 416.3 725 378.7 750 374.3C775 370 800 399 825 417.5C850 436 875 444 887.5 448L900 452L900 601L887.5 601C875 601 850 601 825 601C800 601 775 601 750 601C725 601 700 601 675 601C650 601 625 601 600 601C575 601 550 601 525 601C500 601 475 601 450 601C425 601 400 601 375 601C350 601 325 601 300 601C275 601 250 601 225 601C200 601 175 601 150 601C125 601 100 601 75 601C50 601 25 601 12.5 601L0 601Z" fill="#09BC89"></path><path d="M0 483L12.5 488.2C25 493.3 50 503.7 75 501.7C100 499.7 125 485.3 150 485.3C175 485.3 200 499.7 225 500.7C250 501.7 275 489.3 300 491C325 492.7 350 508.3 375 504C400 499.7 425 475.3 450 475.8C475 476.3 500 501.7 525 501.8C550 502 575 477 600 475.2C625 473.3 650 494.7 675 491.2C700 487.7 725 459.3 750 453.7C775 448 800 465 825 473.7C850 482.3 875 482.7 887.5 482.8L900 483L900 601L887.5 601C875 601 850 601 825 601C800 601 775 601 750 601C725 601 700 601 675 601C650 601 625 601 600 601C575 601 550 601 525 601C500 601 475 601 450 601C425 601 400 601 375 601C350 601 325 601 300 601C275 601 250 601 225 601C200 601 175 601 150 601C125 601 100 601 75 601C50 601 25 601 12.5 601L0 601Z" fill="#9327ef"></path></svg>