<svg id="visual" viewBox="0 0 900 600" width="900" height="600" xmlns="http://www.w3.org/2000/svg" xmlns:xlink="http://www.w3.org/1999/xlink" version="1.1"><rect x="0" y="0" width="900" height="600" fill="#f2b300"></rect><path d="M0 144L37.5 147.2C75 150.3 150 156.7 225 159.7C300 162.7 375 162.3 450 158.3C525 154.3 600 146.7 675 146.2C750 145.7 825 152.3 862.5 155.7L900 159L900 0L862.5 0C825 0 750 0 675 0C600 0 525 0 450 0C375 0 300 0 225 0C150 0 75 0 37.5 0L0 0Z" fill="#1ac433" stroke-linecap="round" stroke-linejoin="miter"></path></svg>