<svg id="visual" viewBox="0 0 900 600" width="900" height="600" xmlns="http://www.w3.org/2000/svg" xmlns:xlink="http://www.w3.org/1999/xlink" version="1.1"><rect x="0" y="0" width="900" height="600" fill="#9327ef"></rect><g transform="translate(480.27726910683674 267.0837403243293)"><path d="M82.1 -135.5C110.4 -109.5 140.3 -93.6 155 -68.6C169.8 -43.7 169.5 -9.7 155.4 15.6C141.2 40.8 113.1 57.2 99 101.1C84.9 145.1 84.7 216.5 57.1 249.8C29.6 283.1 -25.4 278.3 -69.5 256.4C-113.7 234.5 -147.2 195.5 -177.5 156.2C-207.9 116.9 -235.1 77.3 -224.1 42.5C-213.1 7.7 -163.8 -22.3 -138.9 -57.8C-113.9 -93.2 -113.2 -134.1 -94.1 -164.4C-75 -194.7 -37.5 -214.3 -5.3 -206.1C26.9 -197.8 53.7 -161.6 82.1 -135.5" fill="#1ac433"></path></g></svg>