<svg id="visual" viewBox="0 0 900 600" width="900" height="600" xmlns="http://www.w3.org/2000/svg" xmlns:xlink="http://www.w3.org/1999/xlink" version="1.1"><rect x="0" y="0" width="900" height="600" fill="#9327ef"></rect><path d="M0 256L15 260.7C30 265.3 60 274.7 90 302.8C120 331 150 378 180 373.8C210 369.7 240 314.3 270 300.8C300 287.3 330 315.7 360 345.3C390 375 420 406 450 397.3C480 388.7 510 340.3 540 343.7C570 347 600 402 630 393.7C660 385.3 690 313.7 720 284.8C750 256 780 270 810 290C840 310 870 336 885 349L900 362L900 601L885 601C870 601 840 601 810 601C780 601 750 601 720 601C690 601 660 601 630 601C600 601 570 601 540 601C510 601 480 601 450 601C420 601 390 601 360 601C330 601 300 601 270 601C240 601 210 601 180 601C150 601 120 601 90 601C60 601 30 601 15 601L0 601Z" fill="#f2b300" stroke-linecap="round" stroke-linejoin="miter"></path></svg>