<svg id="visual" viewBox="0 0 900 600" width="900" height="600" xmlns="http://www.w3.org/2000/svg" xmlns:xlink="http://www.w3.org/1999/xlink" version="1.1"><rect x="0" y="0" width="900" height="600" fill="#f2b300"></rect><path d="M0 458L18.8 463.5C37.7 469 75.3 480 112.8 482.2C150.3 484.3 187.7 477.7 225.2 475.2C262.7 472.7 300.3 474.3 337.8 473.3C375.3 472.3 412.7 468.7 450.2 465.7C487.7 462.7 525.3 460.3 562.8 461.3C600.3 462.3 637.7 466.7 675.2 474.7C712.7 482.7 750.3 494.3 787.8 496.2C825.3 498 862.7 490 881.3 486L900 482L900 601L881.3 601C862.7 601 825.3 601 787.8 601C750.3 601 712.7 601 675.2 601C637.7 601 600.3 601 562.8 601C525.3 601 487.7 601 450.2 601C412.7 601 375.3 601 337.8 601C300.3 601 262.7 601 225.2 601C187.7 601 150.3 601 112.8 601C75.3 601 37.7 601 18.8 601L0 601Z" fill="#9327ef"></path><path d="M0 558L18.8 556.5C37.7 555 75.3 552 112.8 544.8C150.3 537.7 187.7 526.3 225.2 529.3C262.7 532.3 300.3 549.7 337.8 558C375.3 566.3 412.7 565.7 450.2 563.2C487.7 560.7 525.3 556.3 562.8 555.2C600.3 554 637.7 556 675.2 553C712.7 550 750.3 542 787.8 539C825.3 536 862.7 538 881.3 539L900 540L900 601L881.3 601C862.7 601 825.3 601 787.8 601C750.3 601 712.7 601 675.2 601C637.7 601 600.3 601 562.8 601C525.3 601 487.7 601 450.2 601C412.7 601 375.3 601 337.8 601C300.3 601 262.7 601 225.2 601C187.7 601 150.3 601 112.8 601C75.3 601 37.7 601 18.8 601L0 601Z" fill="#9327ef"></path></svg>