<svg id="visual" viewBox="0 0 900 450" width="900" height="450" xmlns="http://www.w3.org/2000/svg" xmlns:xlink="http://www.w3.org/1999/xlink" version="1.1"><rect x="0" y="0" width="900" height="450" fill="#9327ef"></rect><g fill="#09BC89"><circle r="43" cx="58" cy="204"></circle><circle r="19" cx="288" cy="282"></circle><circle r="34" cx="624" cy="391"></circle><circle r="20" cx="433" cy="56"></circle><circle r="25" cx="595" cy="186"></circle><circle r="18" cx="294" cy="79"></circle><circle r="33" cx="762" cy="109"></circle><circle r="23" cx="224" cy="369"></circle><circle r="34" cx="496" cy="299"></circle><circle r="31" cx="520" cy="395"></circle><circle r="24" cx="74" cy="389"></circle><circle r="27" cx="668" cy="81"></circle><circle r="35" cx="367" cy="128"></circle><circle r="29" cx="734" cy="234"></circle><circle r="28" cx="206" cy="118"></circle><circle r="24" cx="440" cy="183"></circle><circle r="23" cx="569" cy="89"></circle><circle r="32" cx="785" cy="387"></circle><circle r="35" cx="823" cy="186"></circle><circle r="31" cx="663" cy="304"></circle><circle r="32" cx="826" cy="281"></circle><circle r="37" cx="55" cy="78"></circle><circle r="18" cx="158" cy="232"></circle><circle r="24" cx="388" cy="387"></circle><circle r="33" cx="389" cy="296"></circle><circle r="31" cx="104" cy="306"></circle><circle r="18" cx="839" cy="48"></circle><circle r="24" cx="344" cy="215"></circle><circle r="18" cx="153" cy="47"></circle><circle r="41" cx="259" cy="200"></circle><circle r="34" cx="680" cy="167"></circle><circle r="21" cx="584" cy="270"></circle></g></svg>