<svg id="visual" viewBox="0 0 900 600" width="900" height="600" xmlns="http://www.w3.org/2000/svg" xmlns:xlink="http://www.w3.org/1999/xlink" version="1.1"><rect x="0" y="0" width="900" height="600" fill="#9327ef"></rect><g fill="#1ac433"><circle r="30" cx="650" cy="308"></circle><circle r="10" cx="574" cy="222"></circle><circle r="11" cx="802" cy="505"></circle><circle r="13" cx="419" cy="353"></circle><circle r="20" cx="499" cy="301"></circle><circle r="26" cx="186" cy="178"></circle><circle r="21" cx="327" cy="261"></circle><circle r="16" cx="157" cy="231"></circle><circle r="11" cx="513" cy="225"></circle><circle r="15" cx="717" cy="457"></circle><circle r="25" cx="75" cy="316"></circle><circle r="17" cx="86" cy="469"></circle><circle r="23" cx="668" cy="220"></circle><circle r="17" cx="240" cy="433"></circle><circle r="15" cx="760" cy="379"></circle><circle r="11" cx="75" cy="237"></circle><circle r="17" cx="428" cy="570"></circle><circle r="27" cx="254" cy="183"></circle><circle r="11" cx="597" cy="89"></circle><circle r="10" cx="63" cy="525"></circle><circle r="19" cx="89" cy="166"></circle><circle r="17" cx="513" cy="392"></circle><circle r="10" cx="603" cy="557"></circle><circle r="10" cx="753" cy="111"></circle><circle r="10" cx="413" cy="223"></circle><circle r="27" cx="167" cy="76"></circle><circle r="19" cx="576" cy="496"></circle><circle r="19" cx="157" cy="538"></circle><circle r="14" cx="786" cy="315"></circle><circle r="17" cx="349" cy="151"></circle><circle r="18" cx="164" cy="420"></circle><circle r="14" cx="237" cy="72"></circle><circle r="19" cx="497" cy="506"></circle><circle r="20" cx="301" cy="487"></circle><circle r="17" cx="532" cy="144"></circle><circle r="28" cx="413" cy="289"></circle><circle r="22" cx="217" cy="273"></circle><circle r="23" cx="236" cy="523"></circle><circle r="27" cx="142" cy="296"></circle><circle r="28" cx="826" cy="88"></circle><circle r="15" cx="89" cy="79"></circle><circle r="9" cx="567" cy="337"></circle><circle r="16" cx="329" cy="420"></circle><circle r="25" cx="665" cy="496"></circle><circle r="28" cx="273" cy="121"></circle><circle r="15" cx="858" cy="435"></circle><circle r="19" cx="386" cy="59"></circle><circle r="20" cx="190" cy="477"></circle><circle r="18" cx="741" cy="524"></circle><circle r="27" cx="702" cy="171"></circle><circle r="18" cx="525" cy="454"></circle><circle r="25" cx="376" cy="466"></circle><circle r="15" cx="794" cy="447"></circle><circle r="23" cx="815" cy="263"></circle><circle r="16" cx="422" cy="419"></circle><circle r="19" cx="689" cy="99"></circle><circle r="14" cx="607" cy="403"></circle><circle r="28" cx="455" cy="67"></circle><circle r="28" cx="738" cy="247"></circle><circle r="9" cx="664" cy="382"></circle><circle r="28" cx="829" cy="563"></circle><circle r="23" cx="843" cy="183"></circle><circle r="24" cx="781" cy="169"></circle><circle r="18" cx="439" cy="491"></circle><circle r="26" cx="456" cy="133"></circle><circle r="18" cx="209" cy="370"></circle><circle r="18" cx="321" cy="569"></circle><circle r="25" cx="683" cy="552"></circle><circle r="21" cx="376" cy="526"></circle><circle r="19" cx="327" cy="336"></circle><circle r="10" cx="705" cy="337"></circle><circle r="14" cx="512" cy="563"></circle><circle r="15" cx="311" cy="61"></circle><circle r="12" cx="596" cy="282"></circle><circle r="24" cx="539" cy="47"></circle><circle r="24" cx="30" cy="96"></circle><circle r="16" cx="281" cy="377"></circle><circle r="25" cx="776" cy="57"></circle><circle r="25" cx="102" cy="389"></circle><circle r="25" cx="862" cy="325"></circle><circle r="26" cx="870" cy="515"></circle><circle r="9" cx="642" cy="144"></circle><circle r="28" cx="824" cy="377"></circle><circle r="23" cx="701" cy="32"></circle><circle r="26" cx="30" cy="387"></circle><circle r="12" cx="40" cy="30"></circle><circle r="17" cx="642" cy="37"></circle><circle r="23" cx="271" cy="302"></circle><circle r="13" cx="318" cy="202"></circle><circle r="14" cx="268" cy="243"></circle><circle r="28" cx="867" cy="32"></circle><circle r="14" cx="871" cy="129"></circle><circle r="16" cx="870" cy="238"></circle></g></svg>