<svg id="visual" viewBox="0 0 900 600" width="900" height="600" xmlns="http://www.w3.org/2000/svg" xmlns:xlink="http://www.w3.org/1999/xlink" version="1.1"><path d="M0 31L82 73L164 61L245 37L327 49L409 25L491 37L573 67L655 79L736 37L818 67L900 49L900 0L818 0L736 0L655 0L573 0L491 0L409 0L327 0L245 0L164 0L82 0L0 0Z" fill="#1ac433"></path><path d="M0 163L82 235L164 163L245 169L327 145L409 217L491 163L573 283L655 169L736 187L818 139L900 271L900 47L818 65L736 35L655 77L573 65L491 35L409 23L327 47L245 35L164 59L82 71L0 29Z" fill="#5fc31f"></path><path d="M0 319L82 379L164 313L245 295L327 277L409 337L491 367L573 379L655 397L736 301L818 331L900 415L900 269L818 137L736 185L655 167L573 281L491 161L409 215L327 143L245 167L164 161L82 233L0 161Z" fill="#85c20b"></path><path d="M0 385L82 475L164 427L245 415L327 361L409 391L491 439L573 451L655 469L736 421L818 397L900 487L900 413L818 329L736 299L655 395L573 377L491 365L409 335L327 275L245 293L164 311L82 377L0 317Z" fill="#a4c000"></path><path d="M0 445L82 499L164 481L245 457L327 421L409 451L491 475L573 481L655 499L736 487L818 439L900 511L900 485L818 395L736 419L655 467L573 449L491 437L409 389L327 359L245 413L164 425L82 473L0 383Z" fill="#bfbd00"></path><path d="M0 511L82 535L164 529L245 499L327 505L409 487L491 535L573 559L655 553L736 517L818 517L900 553L900 509L818 437L736 485L655 497L573 479L491 473L409 449L327 419L245 455L164 479L82 497L0 443Z" fill="#d9b800"></path><path d="M0 601L82 601L164 601L245 601L327 601L409 601L491 601L573 601L655 601L736 601L818 601L900 601L900 551L818 515L736 515L655 551L573 557L491 533L409 485L327 503L245 497L164 527L82 533L0 509Z" fill="#f2b300"></path></svg>