<svg id="visual" viewBox="0 0 900 600" width="900" height="600" xmlns="http://www.w3.org/2000/svg" xmlns:xlink="http://www.w3.org/1999/xlink" version="1.1"><rect x="0" y="0" width="900" height="600" fill="#1ac433"></rect><defs><linearGradient id="grad1_0" x1="33.3%" y1="0%" x2="100%" y2="100%"><stop offset="20%" stop-color="#1ac433" stop-opacity="1"></stop><stop offset="80%" stop-color="#1ac433" stop-opacity="1"></stop></linearGradient></defs><defs><linearGradient id="grad2_0" x1="0%" y1="0%" x2="66.7%" y2="100%"><stop offset="20%" stop-color="#1ac433" stop-opacity="1"></stop><stop offset="80%" stop-color="#1ac433" stop-opacity="1"></stop></linearGradient></defs><g transform="translate(900, 0)"><path d="M0 405.6C-30.2 400.9 -60.3 396.2 -87.5 383.1C-114.6 370.1 -138.6 348.7 -157.5 327.1C-176.4 305.4 -190.1 283.4 -218.8 274.4C-247.6 265.4 -291.4 269.4 -317.1 252.9C-342.9 236.4 -350.5 199.3 -343.3 165.3C-336 131.3 -313.8 100.5 -321.7 73.4C-329.6 46.4 -367.6 23.2 -405.6 0L0 0Z" fill="#f2b300"></path></g><g transform="translate(0, 600)"><path d="M0 -405.6C24.4 -379.2 48.8 -352.9 79.4 -348C110 -343.2 146.8 -360 162.7 -337.9C178.6 -315.7 173.7 -254.8 176.4 -221.3C179.2 -187.7 189.6 -181.7 229.1 -182.7C268.5 -183.7 337 -191.8 365.5 -176C393.9 -160.2 382.2 -120.5 382.2 -87.2C382.2 -53.9 393.9 -27 405.6 0L0 0Z" fill="#f2b300"></path></g></svg>