<svg id="visual" viewBox="0 0 900 600" width="900" height="600" xmlns="http://www.w3.org/2000/svg" xmlns:xlink="http://www.w3.org/1999/xlink" version="1.1"><path d="M0 55L37.5 59C75 63 150 71 225 78C300 85 375 91 450 89C525 87 600 77 675 74C750 71 825 75 862.5 77L900 79L900 0L862.5 0C825 0 750 0 675 0C600 0 525 0 450 0C375 0 300 0 225 0C150 0 75 0 37.5 0L0 0Z" fill="#ffb800"></path><path d="M0 151L37.5 160C75 169 150 187 225 192C300 197 375 189 450 187C525 185 600 189 675 179C750 169 825 145 862.5 133L900 121L900 77L862.5 75C825 73 750 69 675 72C600 75 525 85 450 87C375 89 300 83 225 76C150 69 75 61 37.5 57L0 53Z" fill="#ff8c24"></path><path d="M0 235L37.5 237C75 239 150 243 225 242C300 241 375 235 450 234C525 233 600 237 675 231C750 225 825 209 862.5 201L900 193L900 119L862.5 131C825 143 750 167 675 177C600 187 525 183 450 185C375 187 300 195 225 190C150 185 75 167 37.5 158L0 149Z" fill="#ff5d43"></path><path d="M0 283L37.5 284C75 285 150 287 225 288C300 289 375 289 450 285C525 281 600 273 675 268C750 263 825 261 862.5 260L900 259L900 191L862.5 199C825 207 750 223 675 229C600 235 525 231 450 232C375 233 300 239 225 240C150 241 75 237 37.5 235L0 233Z" fill="#fc2960"></path><path d="M0 349L37.5 347C75 345 150 341 225 335C300 329 375 321 450 315C525 309 600 305 675 301C750 297 825 293 862.5 291L900 289L900 257L862.5 258C825 259 750 261 675 266C600 271 525 279 450 283C375 287 300 287 225 286C150 285 75 283 37.5 282L0 281Z" fill="#dd007c"></path><path d="M0 421L37.5 427C75 433 150 445 225 447C300 449 375 441 450 439C525 437 600 441 675 456C750 471 825 497 862.5 510L900 523L900 287L862.5 289C825 291 750 295 675 299C600 303 525 307 450 313C375 319 300 327 225 333C150 339 75 343 37.5 345L0 347Z" fill="#ad0094"></path><path d="M0 601L37.5 601C75 601 150 601 225 601C300 601 375 601 450 601C525 601 600 601 675 601C750 601 825 601 862.5 601L900 601L900 521L862.5 508C825 495 750 469 675 454C600 439 525 435 450 437C375 439 300 447 225 445C150 443 75 431 37.5 425L0 419Z" fill="#6821a4"></path></svg>