<svg id="visual" viewBox="0 0 900 600" width="900" height="600" xmlns="http://www.w3.org/2000/svg" xmlns:xlink="http://www.w3.org/1999/xlink" version="1.1"><rect x="0" y="0" width="900" height="600" fill="#ffb800"></rect><path d="M0 115L25 115C50 115 100 115 150 117.7C200 120.3 250 125.7 300 120.8C350 116 400 101 450 99.5C500 98 550 110 600 118.3C650 126.7 700 131.3 750 132.5C800 133.7 850 131.3 875 130.2L900 129L900 0L875 0C850 0 800 0 750 0C700 0 650 0 600 0C550 0 500 0 450 0C400 0 350 0 300 0C250 0 200 0 150 0C100 0 50 0 25 0L0 0Z" fill="#1ac433" stroke-linecap="round" stroke-linejoin="miter"></path></svg>