<svg id="visual" viewBox="0 0 900 600" width="900" height="600" xmlns="http://www.w3.org/2000/svg" xmlns:xlink="http://www.w3.org/1999/xlink" version="1.1"><rect x="0" y="0" width="900" height="600" fill="#Ffbd03"></rect><path d="M0 218L30 218.2C60 218.3 120 218.7 180 224C240 229.3 300 239.7 360 240.7C420 241.7 480 233.3 540 229.7C600 226 660 227 720 230.7C780 234.3 840 240.7 870 243.8L900 247L900 0L870 0C840 0 780 0 720 0C660 0 600 0 540 0C480 0 420 0 360 0C300 0 240 0 180 0C120 0 60 0 30 0L0 0Z" fill="#1ac433" stroke-linecap="round" stroke-linejoin="miter"></path></svg>