<svg id="visual" viewBox="0 0 900 600" width="900" height="600" xmlns="http://www.w3.org/2000/svg" xmlns:xlink="http://www.w3.org/1999/xlink" version="1.1"><rect x="0" y="0" width="900" height="600" fill="#ffb800"></rect><g transform="translate(473.6723443978382 286.5082485961728)"><path d="M76 -118.2C109.6 -112.2 155.7 -114.3 157.6 -96C159.5 -77.7 117.3 -38.8 124.1 3.9C130.8 46.7 186.7 93.3 194.3 128.3C202 163.2 161.5 186.4 121.1 202.7C80.7 219.1 40.3 228.5 -2.2 232.3C-44.7 236 -89.3 234.1 -117 210.4C-144.8 186.7 -155.5 141.4 -183.2 102.7C-210.9 64 -255.4 32 -239.1 9.4C-222.8 -13.2 -145.6 -26.3 -120 -68.6C-94.4 -110.9 -120.5 -182.3 -109.1 -201.2C-97.7 -220.2 -48.8 -186.6 -13.8 -162.6C21.2 -138.7 42.3 -124.3 76 -118.2" fill="#1ac433"></path></g></svg>