<svg id="visual" viewBox="0 0 960 540" width="960" height="540" xmlns="http://www.w3.org/2000/svg" xmlns:xlink="http://www.w3.org/1999/xlink" version="1.1"><path d="M0 152L26.7 155.7C53.3 159.3 106.7 166.7 160 162.2C213.3 157.7 266.7 141.3 320 126C373.3 110.7 426.7 96.3 480 102.7C533.3 109 586.7 136 640 137.8C693.3 139.7 746.7 116.3 800 105.5C853.3 94.7 906.7 96.3 933.3 97.2L960 98L960 0L933.3 0C906.7 0 853.3 0 800 0C746.7 0 693.3 0 640 0C586.7 0 533.3 0 480 0C426.7 0 373.3 0 320 0C266.7 0 213.3 0 160 0C106.7 0 53.3 0 26.7 0L0 0Z" fill="#66d76f"></path><path d="M0 260L26.7 257.3C53.3 254.7 106.7 249.3 160 239.5C213.3 229.7 266.7 215.3 320 198.2C373.3 181 426.7 161 480 170C533.3 179 586.7 217 640 219.8C693.3 222.7 746.7 190.3 800 174.2C853.3 158 906.7 158 933.3 158L960 158L960 96L933.3 95.2C906.7 94.3 853.3 92.7 800 103.5C746.7 114.3 693.3 137.7 640 135.8C586.7 134 533.3 107 480 100.7C426.7 94.3 373.3 108.7 320 124C266.7 139.3 213.3 155.7 160 160.2C106.7 164.7 53.3 157.3 26.7 153.7L0 150Z" fill="#4ed059"></path><path d="M0 309L26.7 309.8C53.3 310.7 106.7 312.3 160 305.2C213.3 298 266.7 282 320 268.5C373.3 255 426.7 244 480 256.5C533.3 269 586.7 305 640 300.5C693.3 296 746.7 251 800 234C853.3 217 906.7 228 933.3 233.5L960 239L960 156L933.3 156C906.7 156 853.3 156 800 172.2C746.7 188.3 693.3 220.7 640 217.8C586.7 215 533.3 177 480 168C426.7 159 373.3 179 320 196.2C266.7 213.3 213.3 227.7 160 237.5C106.7 247.3 53.3 252.7 26.7 255.3L0 258Z" fill="#31c841"></path><path d="M0 465L26.7 457.8C53.3 450.7 106.7 436.3 160 427.3C213.3 418.3 266.7 414.7 320 416.5C373.3 418.3 426.7 425.7 480 428.5C533.3 431.3 586.7 429.7 640 427C693.3 424.3 746.7 420.7 800 418.8C853.3 417 906.7 417 933.3 417L960 417L960 237L933.3 231.5C906.7 226 853.3 215 800 232C746.7 249 693.3 294 640 298.5C586.7 303 533.3 267 480 254.5C426.7 242 373.3 253 320 266.5C266.7 280 213.3 296 160 303.2C106.7 310.3 53.3 308.7 26.7 307.8L0 307Z" fill="#17b931"></path><path d="M0 498L26.7 496.2C53.3 494.3 106.7 490.7 160 488C213.3 485.3 266.7 483.7 320 481.8C373.3 480 426.7 478 480 479.7C533.3 481.3 586.7 486.7 640 488.5C693.3 490.3 746.7 488.7 800 484.2C853.3 479.7 906.7 472.3 933.3 468.7L960 465L960 415L933.3 415C906.7 415 853.3 415 800 416.8C746.7 418.7 693.3 422.3 640 425C586.7 427.7 533.3 429.3 480 426.5C426.7 423.7 373.3 416.3 320 414.5C266.7 412.7 213.3 416.3 160 425.3C106.7 434.3 53.3 448.7 26.7 455.8L0 463Z" fill="#12a42d"></path><path d="M0 541L26.7 541C53.3 541 106.7 541 160 541C213.3 541 266.7 541 320 541C373.3 541 426.7 541 480 541C533.3 541 586.7 541 640 541C693.3 541 746.7 541 800 541C853.3 541 906.7 541 933.3 541L960 541L960 463L933.3 466.7C906.7 470.3 853.3 477.7 800 482.2C746.7 486.7 693.3 488.3 640 486.5C586.7 484.7 533.3 479.3 480 477.7C426.7 476 373.3 478 320 479.8C266.7 481.7 213.3 483.3 160 486C106.7 488.7 53.3 492.3 26.7 494.2L0 496Z" fill="#0e9028"></path></svg>