<svg id="visual" viewBox="0 0 900 600" width="900" height="600" xmlns="http://www.w3.org/2000/svg" xmlns:xlink="http://www.w3.org/1999/xlink" version="1.1"><rect x="0" y="0" width="900" height="600" fill="#1ac433"></rect><path d="M0 570L25 570C50 570 100 570 150 569.3C200 568.7 250 567.3 300 568.5C350 569.7 400 573.3 450 573.7C500 574 550 571 600 569C650 567 700 566 750 565.8C800 565.7 850 566.3 875 566.7L900 567L900 601L875 601C850 601 800 601 750 601C700 601 650 601 600 601C550 601 500 601 450 601C400 601 350 601 300 601C250 601 200 601 150 601C100 601 50 601 25 601L0 601Z" fill="#ffb800" stroke-linecap="round" stroke-linejoin="miter"></path></svg>