<svg id="visual" viewBox="0 0 960 540" width="960" height="540" xmlns="http://www.w3.org/2000/svg" xmlns:xlink="http://www.w3.org/1999/xlink" version="1.1"><rect x="0" y="0" width="960" height="540" fill="#1ac433"></rect><g transform="translate(484.30658717306386 266.8321053489234)"><path d="M32.7 -49.6C41 -32 45.5 -20.4 52.2 -5.7C58.9 9 68 26.7 67.4 49.3C66.8 72 56.5 99.4 40.3 101.2C24.1 103.1 1.9 79.2 -17.7 65C-37.4 50.8 -54.6 46.1 -64.7 34.5C-74.8 22.9 -77.8 4.3 -75.1 -13.7C-72.5 -31.7 -64.2 -49.2 -50.7 -65.8C-37.3 -82.4 -18.6 -98.2 -3.2 -94.4C12.2 -90.6 24.4 -67.1 32.7 -49.6" fill="#6821a4"></path></g></svg>