<svg id="visual" viewBox="0 0 900 600" width="900" height="600" xmlns="http://www.w3.org/2000/svg" xmlns:xlink="http://www.w3.org/1999/xlink" version="1.1"><rect x="0" y="0" width="900" height="600" fill="#9327ef"></rect><g transform="translate(451.5570157859719 316.7259459627993)"><path d="M120.4 -172.5C156.8 -163.9 187.5 -131.8 197.6 -94.7C207.6 -57.5 196.8 -15.4 196.1 32.1C195.3 79.6 204.6 132.5 182.2 157.4C159.9 182.4 105.9 179.5 61.6 178C17.3 176.5 -17.3 176.5 -51.2 169.1C-85.2 161.6 -118.6 146.6 -128.5 119.8C-138.4 93.1 -124.9 54.6 -139 14.6C-153.1 -25.3 -194.8 -66.7 -203.3 -111.4C-211.7 -156.1 -187 -204.3 -147.5 -211.4C-108.1 -218.6 -54.1 -184.8 -6 -175.4C42 -166 84 -181 120.4 -172.5" fill="#1ac433"></path></g></svg>