<svg id="visual" viewBox="0 0 900 600" width="900" height="600" xmlns="http://www.w3.org/2000/svg" xmlns:xlink="http://www.w3.org/1999/xlink" version="1.1"><rect x="0" y="0" width="900" height="600" fill="#9327ef"></rect><path d="M0 402L9.3 383.2C18.7 364.3 37.3 326.7 56.2 290.3C75 254 94 219 112.8 229.2C131.7 239.3 150.3 294.7 169 295.7C187.7 296.7 206.3 243.3 225 208.8C243.7 174.3 262.3 158.7 281.2 171.3C300 184 319 225 337.8 231.8C356.7 238.7 375.3 211.3 394 232C412.7 252.7 431.3 321.3 450 344.2C468.7 367 487.3 344 506.2 362C525 380 544 439 562.8 432.3C581.7 425.7 600.3 353.3 619 319.8C637.7 286.3 656.3 291.7 675 336C693.7 380.3 712.3 463.7 731.2 497.8C750 532 769 517 787.8 462.2C806.7 407.3 825.3 312.7 844 270C862.7 227.3 881.3 236.7 890.7 241.3L900 246L900 601L890.7 601C881.3 601 862.7 601 844 601C825.3 601 806.7 601 787.8 601C769 601 750 601 731.2 601C712.3 601 693.7 601 675 601C656.3 601 637.7 601 619 601C600.3 601 581.7 601 562.8 601C544 601 525 601 506.2 601C487.3 601 468.7 601 450 601C431.3 601 412.7 601 394 601C375.3 601 356.7 601 337.8 601C319 601 300 601 281.2 601C262.3 601 243.7 601 225 601C206.3 601 187.7 601 169 601C150.3 601 131.7 601 112.8 601C94 601 75 601 56.2 601C37.3 601 18.7 601 9.3 601L0 601Z" fill="#1ac433" stroke-linecap="round" stroke-linejoin="miter"></path></svg>