<svg id="visual" viewBox="0 0 900 600" width="900" height="600" xmlns="http://www.w3.org/2000/svg" xmlns:xlink="http://www.w3.org/1999/xlink" version="1.1"><rect x="0" y="0" width="900" height="600" fill="#6821a4"></rect><defs><linearGradient id="grad1_0" x1="33.3%" y1="0%" x2="100%" y2="100%"><stop offset="20%" stop-color="#6821a4" stop-opacity="1"></stop><stop offset="80%" stop-color="#6821a4" stop-opacity="1"></stop></linearGradient></defs><defs><linearGradient id="grad2_0" x1="0%" y1="0%" x2="66.7%" y2="100%"><stop offset="20%" stop-color="#6821a4" stop-opacity="1"></stop><stop offset="80%" stop-color="#6821a4" stop-opacity="1"></stop></linearGradient></defs><g transform="translate(900, 0)"><path d="M0 459.7C-37.5 446.7 -74.9 433.8 -114.1 426C-153.3 418.2 -194.3 415.5 -229 396.6C-263.7 377.7 -292.2 342.6 -304.1 304.1C-315.9 265.5 -311.2 223.6 -336.9 194.5C-362.5 165.4 -418.5 149.3 -444 119C-469.6 88.7 -464.6 44.4 -459.7 0L0 0Z" fill="#ffb800"></path></g><g transform="translate(0, 600)"><path d="M0 -459.7C41.6 -459.3 83.1 -459 119 -444C154.9 -429.1 185 -399.7 216.5 -375C248 -350.3 280.7 -330.4 301.9 -301.9C323.2 -273.5 332.9 -236.4 355.9 -205.5C378.9 -174.6 415.2 -149.7 434.7 -116.5C454.2 -83.2 456.9 -41.6 459.7 0L0 0Z" fill="#ffb800"></path></g></svg>