<svg id="visual" viewBox="0 0 960 540" width="960" height="540" xmlns="http://www.w3.org/2000/svg" xmlns:xlink="http://www.w3.org/1999/xlink" version="1.1"><path d="M0 446L22.8 446.3C45.7 446.7 91.3 447.3 137 443C182.7 438.7 228.3 429.3 274 427.5C319.7 425.7 365.3 431.3 411.2 435.5C457 439.7 503 442.3 548.8 439C594.7 435.7 640.3 426.3 686 420.5C731.7 414.7 777.3 412.3 823 416.3C868.7 420.3 914.3 430.7 937.2 435.8L960 441L960 541L937.2 541C914.3 541 868.7 541 823 541C777.3 541 731.7 541 686 541C640.3 541 594.7 541 548.8 541C503 541 457 541 411.2 541C365.3 541 319.7 541 274 541C228.3 541 182.7 541 137 541C91.3 541 45.7 541 22.8 541L0 541Z" fill="#fa7268"></path><path d="M0 437L22.8 436.8C45.7 436.7 91.3 436.3 137 443.7C182.7 451 228.3 466 274 469.5C319.7 473 365.3 465 411.2 457.3C457 449.7 503 442.3 548.8 443.3C594.7 444.3 640.3 453.7 686 455.3C731.7 457 777.3 451 823 446.5C868.7 442 914.3 439 937.2 437.5L960 436L960 541L937.2 541C914.3 541 868.7 541 823 541C777.3 541 731.7 541 686 541C640.3 541 594.7 541 548.8 541C503 541 457 541 411.2 541C365.3 541 319.7 541 274 541C228.3 541 182.7 541 137 541C91.3 541 45.7 541 22.8 541L0 541Z" fill="#eb5967"></path><path d="M0 463L22.8 465C45.7 467 91.3 471 137 475.2C182.7 479.3 228.3 483.7 274 481.5C319.7 479.3 365.3 470.7 411.2 470C457 469.3 503 476.7 548.8 478.8C594.7 481 640.3 478 686 476.5C731.7 475 777.3 475 823 479.2C868.7 483.3 914.3 491.7 937.2 495.8L960 500L960 541L937.2 541C914.3 541 868.7 541 823 541C777.3 541 731.7 541 686 541C640.3 541 594.7 541 548.8 541C503 541 457 541 411.2 541C365.3 541 319.7 541 274 541C228.3 541 182.7 541 137 541C91.3 541 45.7 541 22.8 541L0 541Z" fill="#da3f67"></path><path d="M0 518L22.8 517.2C45.7 516.3 91.3 514.7 137 511.3C182.7 508 228.3 503 274 504.2C319.7 505.3 365.3 512.7 411.2 516.2C457 519.7 503 519.3 548.8 517.7C594.7 516 640.3 513 686 509.3C731.7 505.7 777.3 501.3 823 501.3C868.7 501.3 914.3 505.7 937.2 507.8L960 510L960 541L937.2 541C914.3 541 868.7 541 823 541C777.3 541 731.7 541 686 541C640.3 541 594.7 541 548.8 541C503 541 457 541 411.2 541C365.3 541 319.7 541 274 541C228.3 541 182.7 541 137 541C91.3 541 45.7 541 22.8 541L0 541Z" fill="#c62368"></path></svg>