<svg id="visual" viewBox="0 0 900 600" width="900" height="600" xmlns="http://www.w3.org/2000/svg" xmlns:xlink="http://www.w3.org/1999/xlink" version="1.1"><rect x="0" y="0" width="900" height="600" fill="#Ffbd03"></rect><path d="M0 149L30 145.7C60 142.3 120 135.7 180 141.8C240 148 300 167 360 176C420 185 480 184 540 183.8C600 183.7 660 184.3 720 181.2C780 178 840 171 870 167.5L900 164L900 0L870 0C840 0 780 0 720 0C660 0 600 0 540 0C480 0 420 0 360 0C300 0 240 0 180 0C120 0 60 0 30 0L0 0Z" fill="#1ac433" stroke-linecap="round" stroke-linejoin="miter"></path></svg>